STARTFONT 2.1
FONT -Bitstream-Terminal-Medium-R-Narrow--18-140-100-100-C-70-DEC-DECtech
SIZE 14 100 100
FONTBOUNDINGBOX 7 20 0 -5

STARTPROPERTIES 25
CHARSET_REGISTRY "DEC"
CHARSET_ENCODING "DECtech"
CAP_HEIGHT 11
X_HEIGHT 9
AVERAGE_WIDTH 70
FONTNAME_REGISTRY ""
FAMILY_NAME "Terminal"
FOUNDRY "Bitstream"
WEIGHT_NAME "Medium"
SETWIDTH_NAME "Narrow"
SLANT "R"
ADD_STYLE_NAME ""
PIXEL_SIZE 18
POINT_SIZE 140
RESOLUTION_X 100
RESOLUTION_Y 100
SPACING "C"
CHARSET_COLLECTIONS "DEC-DECtech"
FULL_NAME "Terminal Narrow"
COPYRIGHT "Copyright (c) 1988 Bitstream, Inc., Copyright 1990 Digital Equipment Corp. All rights reserved."
WEIGHT 10
QUAD_WIDTH 7
DEFAULT_CHAR 159
FONT_DESCENT 5
FONT_ASCENT 15
ENDPROPERTIES

CHARS 181

STARTCHAR space
ENCODING 32
SWIDTH 360 0
DWIDTH 7 0
BBX 1 1 0 0
BITMAP
00
ENDCHAR

STARTCHAR exclam
ENCODING 33
SWIDTH 360 0
DWIDTH 7 0
BBX 3 11 2 0
BITMAP
40
40
40
40
40
40
40
00
40
E0
40
ENDCHAR

STARTCHAR quotedbl
ENCODING 34
SWIDTH 360 0
DWIDTH 7 0
BBX 3 4 2 9
BITMAP
A0
A0
A0
A0
ENDCHAR

STARTCHAR numbersign
ENCODING 35
SWIDTH 360 0
DWIDTH 7 0
BBX 5 12 1 -1
BITMAP
50
50
50
50
F8
50
50
F8
50
50
50
50
ENDCHAR

STARTCHAR dollar
ENCODING 36
SWIDTH 360 0
DWIDTH 7 0
BBX 4 16 2 -3
BITMAP
20
20
70
90
90
80
40
20
10
10
90
90
E0
40
40
40
ENDCHAR

STARTCHAR percent
ENCODING 37
SWIDTH 360 0
DWIDTH 7 0
BBX 5 11 1 0
BITMAP
40
A0
A0
A8
50
20
50
A8
28
28
10
ENDCHAR

STARTCHAR ampersand
ENCODING 38
SWIDTH 360 0
DWIDTH 7 0
BBX 5 11 1 0
BITMAP
30
50
40
40
40
A8
A8
90
90
90
68
ENDCHAR

STARTCHAR quoteright
ENCODING 39
SWIDTH 360 0
DWIDTH 7 0
BBX 2 4 3 9
BITMAP
40
40
80
80
ENDCHAR

STARTCHAR parenleft
ENCODING 40
SWIDTH 360 0
DWIDTH 7 0
BBX 3 13 2 -1
BITMAP
20
40
40
80
80
80
80
80
80
80
40
40
20
ENDCHAR

STARTCHAR parenright
ENCODING 41
SWIDTH 360 0
DWIDTH 7 0
BBX 3 13 2 -1
BITMAP
80
40
40
20
20
20
20
20
20
20
40
40
80
ENDCHAR

STARTCHAR asterisk
ENCODING 42
SWIDTH 360 0
DWIDTH 7 0
BBX 5 6 1 3
BITMAP
20
A8
70
20
50
88
ENDCHAR

STARTCHAR plus
ENCODING 43
SWIDTH 360 0
DWIDTH 7 0
BBX 5 7 1 2
BITMAP
20
20
20
F8
20
20
20
ENDCHAR

STARTCHAR comma
ENCODING 44
SWIDTH 360 0
DWIDTH 7 0
BBX 3 4 2 -2
BITMAP
60
40
80
80
ENDCHAR

STARTCHAR minus
ENCODING 45
SWIDTH 360 0
DWIDTH 7 0
BBX 5 1 1 5
BITMAP
F8
ENDCHAR

STARTCHAR period
ENCODING 46
SWIDTH 360 0
DWIDTH 7 0
BBX 3 3 2 0
BITMAP
40
E0
40
ENDCHAR

STARTCHAR slash
ENCODING 47
SWIDTH 360 0
DWIDTH 7 0
BBX 4 13 2 -1
BITMAP
10
10
10
20
20
20
40
40
40
40
80
80
80
ENDCHAR

STARTCHAR zero
ENCODING 48
SWIDTH 360 0
DWIDTH 7 0
BBX 5 11 1 0
BITMAP
20
50
50
88
88
88
88
88
50
50
20
ENDCHAR

STARTCHAR one
ENCODING 49
SWIDTH 360 0
DWIDTH 7 0
BBX 5 11 1 0
BITMAP
20
60
A0
20
20
20
20
20
20
20
F8
ENDCHAR

STARTCHAR two
ENCODING 50
SWIDTH 360 0
DWIDTH 7 0
BBX 4 11 2 0
BITMAP
60
90
90
10
10
20
20
40
40
90
F0
ENDCHAR

STARTCHAR three
ENCODING 51
SWIDTH 360 0
DWIDTH 7 0
BBX 4 11 2 0
BITMAP
60
90
10
10
10
60
10
10
10
90
60
ENDCHAR

STARTCHAR four
ENCODING 52
SWIDTH 360 0
DWIDTH 7 0
BBX 5 11 1 0
BITMAP
10
10
30
50
50
90
90
F8
10
10
38
ENDCHAR

STARTCHAR five
ENCODING 53
SWIDTH 360 0
DWIDTH 7 0
BBX 4 11 2 0
BITMAP
F0
80
80
80
E0
90
10
10
10
90
60
ENDCHAR

STARTCHAR six
ENCODING 54
SWIDTH 360 0
DWIDTH 7 0
BBX 4 11 2 0
BITMAP
30
40
40
80
E0
90
90
90
90
90
60
ENDCHAR

STARTCHAR seven
ENCODING 55
SWIDTH 360 0
DWIDTH 7 0
BBX 4 11 2 0
BITMAP
F0
90
10
20
20
20
40
40
80
80
80
ENDCHAR

STARTCHAR eight
ENCODING 56
SWIDTH 360 0
DWIDTH 7 0
BBX 4 11 2 0
BITMAP
60
90
90
90
90
60
90
90
90
90
60
ENDCHAR

STARTCHAR nine
ENCODING 57
SWIDTH 360 0
DWIDTH 7 0
BBX 4 11 2 0
BITMAP
60
90
90
90
90
90
70
10
20
20
C0
ENDCHAR

STARTCHAR colon
ENCODING 58
SWIDTH 360 0
DWIDTH 7 0
BBX 3 8 2 0
BITMAP
40
E0
40
00
00
40
E0
40
ENDCHAR

STARTCHAR semicolon
ENCODING 59
SWIDTH 360 0
DWIDTH 7 0
BBX 3 10 2 -2
BITMAP
40
E0
40
00
00
00
60
40
80
80
ENDCHAR

STARTCHAR less
ENCODING 60
SWIDTH 360 0
DWIDTH 7 0
BBX 5 9 1 1
BITMAP
08
10
20
40
80
40
20
10
08
ENDCHAR

STARTCHAR equal
ENCODING 61
SWIDTH 360 0
DWIDTH 7 0
BBX 5 4 1 4
BITMAP
F8
00
00
F8
ENDCHAR

STARTCHAR greater
ENCODING 62
SWIDTH 360 0
DWIDTH 7 0
BBX 5 9 1 1
BITMAP
80
40
20
10
08
10
20
40
80
ENDCHAR

STARTCHAR question
ENCODING 63
SWIDTH 360 0
DWIDTH 7 0
BBX 5 11 1 0
BITMAP
70
88
88
08
10
20
20
00
20
70
20
ENDCHAR

STARTCHAR at
ENCODING 64
SWIDTH 360 0
DWIDTH 7 0
BBX 6 13 1 -2
BITMAP
70
88
88
88
98
A8
A8
A8
9C
80
80
48
30
ENDCHAR

STARTCHAR A
ENCODING 65
SWIDTH 360 0
DWIDTH 7 0
BBX 7 11 0 0
BITMAP
10
10
28
28
28
44
44
7C
44
44
C6
ENDCHAR

STARTCHAR B
ENCODING 66
SWIDTH 360 0
DWIDTH 7 0
BBX 6 11 0 0
BITMAP
F8
44
44
44
44
78
44
44
44
44
F8
ENDCHAR

STARTCHAR C
ENCODING 67
SWIDTH 360 0
DWIDTH 7 0
BBX 5 11 1 0
BITMAP
68
98
88
80
80
80
80
80
80
88
70
ENDCHAR

STARTCHAR D
ENCODING 68
SWIDTH 360 0
DWIDTH 7 0
BBX 6 11 0 0
BITMAP
F8
44
44
44
44
44
44
44
44
44
F8
ENDCHAR

STARTCHAR E
ENCODING 69
SWIDTH 360 0
DWIDTH 7 0
BBX 6 11 0 0
BITMAP
FC
44
44
40
48
78
48
40
44
44
FC
ENDCHAR

STARTCHAR F
ENCODING 70
SWIDTH 360 0
DWIDTH 7 0
BBX 6 11 0 0
BITMAP
FC
44
44
40
48
78
48
40
40
40
E0
ENDCHAR

STARTCHAR G
ENCODING 71
SWIDTH 360 0
DWIDTH 7 0
BBX 6 11 1 0
BITMAP
68
98
88
80
80
80
9C
88
88
88
78
ENDCHAR

STARTCHAR H
ENCODING 72
SWIDTH 360 0
DWIDTH 7 0
BBX 7 11 0 0
BITMAP
EE
44
44
44
44
7C
44
44
44
44
EE
ENDCHAR

STARTCHAR I
ENCODING 73
SWIDTH 360 0
DWIDTH 7 0
BBX 5 11 1 0
BITMAP
F8
20
20
20
20
20
20
20
20
20
F8
ENDCHAR

STARTCHAR J
ENCODING 74
SWIDTH 360 0
DWIDTH 7 0
BBX 6 11 0 0
BITMAP
3C
08
08
08
08
08
08
88
88
88
70
ENDCHAR

STARTCHAR K
ENCODING 75
SWIDTH 360 0
DWIDTH 7 0
BBX 7 11 0 0
BITMAP
E6
44
48
48
50
70
48
48
44
44
E6
ENDCHAR

STARTCHAR L
ENCODING 76
SWIDTH 360 0
DWIDTH 7 0
BBX 6 11 1 0
BITMAP
E0
40
40
40
40
40
40
40
44
44
FC
ENDCHAR

STARTCHAR M
ENCODING 77
SWIDTH 360 0
DWIDTH 7 0
BBX 7 11 0 0
BITMAP
C6
44
6C
6C
54
54
54
44
44
44
EE
ENDCHAR

STARTCHAR N
ENCODING 78
SWIDTH 360 0
DWIDTH 7 0
BBX 7 11 0 0
BITMAP
CE
44
64
64
54
54
54
4C
4C
44
E4
ENDCHAR

STARTCHAR O
ENCODING 79
SWIDTH 360 0
DWIDTH 7 0
BBX 5 11 1 0
BITMAP
70
88
88
88
88
88
88
88
88
88
70
ENDCHAR

STARTCHAR P
ENCODING 80
SWIDTH 360 0
DWIDTH 7 0
BBX 6 11 0 0
BITMAP
F8
44
44
44
44
44
78
40
40
40
F0
ENDCHAR

STARTCHAR Q
ENCODING 81
SWIDTH 360 0
DWIDTH 7 0
BBX 5 14 1 -3
BITMAP
70
88
88
88
88
88
88
88
88
88
70
40
68
90
ENDCHAR

STARTCHAR R
ENCODING 82
SWIDTH 360 0
DWIDTH 7 0
BBX 7 11 0 0
BITMAP
F8
44
44
44
44
78
48
48
44
44
E6
ENDCHAR

STARTCHAR S
ENCODING 83
SWIDTH 360 0
DWIDTH 7 0
BBX 5 11 1 0
BITMAP
78
88
88
80
80
70
08
08
88
88
F0
ENDCHAR

STARTCHAR T
ENCODING 84
SWIDTH 360 0
DWIDTH 7 0
BBX 7 11 0 0
BITMAP
FE
92
92
92
10
10
10
10
10
10
38
ENDCHAR

STARTCHAR U
ENCODING 85
SWIDTH 360 0
DWIDTH 7 0
BBX 7 11 0 0
BITMAP
EE
44
44
44
44
44
44
44
44
44
38
ENDCHAR

STARTCHAR V
ENCODING 86
SWIDTH 360 0
DWIDTH 7 0
BBX 7 11 0 0
BITMAP
C6
44
44
44
44
28
28
28
28
10
10
ENDCHAR

STARTCHAR W
ENCODING 87
SWIDTH 360 0
DWIDTH 7 0
BBX 7 11 0 0
BITMAP
C6
82
92
92
92
AA
AA
AA
44
44
44
ENDCHAR

STARTCHAR X
ENCODING 88
SWIDTH 360 0
DWIDTH 7 0
BBX 7 11 0 0
BITMAP
C6
44
28
28
10
10
28
28
44
44
C6
ENDCHAR

STARTCHAR Y
ENCODING 89
SWIDTH 360 0
DWIDTH 7 0
BBX 7 11 0 0
BITMAP
EE
44
44
44
28
28
10
10
10
10
38
ENDCHAR

STARTCHAR Z
ENCODING 90
SWIDTH 360 0
DWIDTH 7 0
BBX 5 11 1 0
BITMAP
F8
88
90
10
20
20
20
40
48
88
F8
ENDCHAR

STARTCHAR bracketleft
ENCODING 91
SWIDTH 360 0
DWIDTH 7 0
BBX 3 13 2 -1
BITMAP
E0
80
80
80
80
80
80
80
80
80
80
80
E0
ENDCHAR

STARTCHAR backslash
ENCODING 92
SWIDTH 360 0
DWIDTH 7 0
BBX 4 13 1 -1
BITMAP
80
80
80
40
40
40
20
20
20
20
10
10
10
ENDCHAR

STARTCHAR bracketright
ENCODING 93
SWIDTH 360 0
DWIDTH 7 0
BBX 3 13 2 -1
BITMAP
E0
20
20
20
20
20
20
20
20
20
20
20
E0
ENDCHAR

STARTCHAR asciicircum
ENCODING 94
SWIDTH 360 0
DWIDTH 7 0
BBX 5 3 1 6
BITMAP
20
70
88
ENDCHAR

STARTCHAR ldblank
ENCODING 95
SWIDTH 360 0
DWIDTH 7 0
BBX 1 1 0 0
BITMAP
00
ENDCHAR

STARTCHAR diamond
ENCODING 96
SWIDTH 360 0
DWIDTH 7 0
BBX 7 11 0 0
BITMAP
10
10
38
38
7C
FE
7C
38
38
10
10
ENDCHAR

STARTCHAR checkerboard
ENCODING 97
SWIDTH 360 0
DWIDTH 7 0
BBX 7 20 0 -5
BITMAP
A8
56
A8
56
A8
56
A8
56
A8
56
A8
56
A8
56
A8
56
A8
56
A8
56
ENDCHAR

STARTCHAR HT
ENCODING 98
SWIDTH 360 0
DWIDTH 7 0
BBX 5 13 1 -1
BITMAP
A0
A0
E0
A0
A0
A0
00
38
10
10
10
10
10
ENDCHAR

STARTCHAR FF
ENCODING 99
SWIDTH 360 0
DWIDTH 7 0
BBX 5 13 1 -1
BITMAP
E0
80
E0
80
80
80
00
38
20
38
20
20
20
ENDCHAR

STARTCHAR CR
ENCODING 100
SWIDTH 360 0
DWIDTH 7 0
BBX 5 13 1 -1
BITMAP
60
90
80
80
90
60
00
30
28
28
30
28
28
ENDCHAR

STARTCHAR LF
ENCODING 101
SWIDTH 360 0
DWIDTH 7 0
BBX 5 13 1 -1
BITMAP
80
80
80
80
80
E0
00
38
20
38
20
20
20
ENDCHAR

STARTCHAR degree
ENCODING 102
SWIDTH 360 0
DWIDTH 7 0
BBX 4 4 2 8
BITMAP
60
90
90
60
ENDCHAR

STARTCHAR plusminus
ENCODING 103
SWIDTH 360 0
DWIDTH 7 0
BBX 5 10 1 0
BITMAP
20
20
20
F8
20
20
20
00
00
F8
ENDCHAR

STARTCHAR NL
ENCODING 104
SWIDTH 360 0
DWIDTH 7 0
BBX 6 13 1 -1
BITMAP
90
D0
D0
B0
B0
90
00
10
10
10
10
10
1C
ENDCHAR

STARTCHAR VT
ENCODING 105
SWIDTH 360 0
DWIDTH 7 0
BBX 5 13 1 -1
BITMAP
A0
A0
A0
A0
40
40
00
38
10
10
10
10
10
ENDCHAR

STARTCHAR ldcornsqlr
ENCODING 106
SWIDTH 360 0
DWIDTH 7 0
BBX 4 11 0 4
BITMAP
10
10
10
10
10
10
10
10
10
10
F0
ENDCHAR

STARTCHAR ldcornsqur
ENCODING 107
SWIDTH 360 0
DWIDTH 7 0
BBX 4 10 0 -5
BITMAP
F0
10
10
10
10
10
10
10
10
10
ENDCHAR

STARTCHAR ldcornsqul
ENCODING 108
SWIDTH 360 0
DWIDTH 7 0
BBX 4 10 3 -5
BITMAP
F0
80
80
80
80
80
80
80
80
80
ENDCHAR

STARTCHAR ldcornsqll
ENCODING 109
SWIDTH 360 0
DWIDTH 7 0
BBX 4 11 3 4
BITMAP
80
80
80
80
80
80
80
80
80
80
F0
ENDCHAR

STARTCHAR ldcross
ENCODING 110
SWIDTH 360 0
DWIDTH 7 0
BBX 7 20 0 -5
BITMAP
10
10
10
10
10
10
10
10
10
10
FE
10
10
10
10
10
10
10
10
10
ENDCHAR

STARTCHAR ldscan1
ENCODING 111
SWIDTH 360 0
DWIDTH 7 0
BBX 7 1 0 12
BITMAP
FE
ENDCHAR

STARTCHAR ldscan3
ENCODING 112
SWIDTH 360 0
DWIDTH 7 0
BBX 7 1 0 8
BITMAP
FE
ENDCHAR

STARTCHAR ldhorizontal
ENCODING 113
SWIDTH 360 0
DWIDTH 7 0
BBX 7 1 0 4
BITMAP
FE
ENDCHAR

STARTCHAR ldscan7
ENCODING 114
SWIDTH 360 0
DWIDTH 7 0
BBX 7 1 0 0
BITMAP
FE
ENDCHAR

STARTCHAR ldscan9
ENCODING 115
SWIDTH 360 0
DWIDTH 7 0
BBX 7 1 0 -4
BITMAP
FE
ENDCHAR

STARTCHAR ldteelft
ENCODING 116
SWIDTH 360 0
DWIDTH 7 0
BBX 4 20 3 -5
BITMAP
80
80
80
80
80
80
80
80
80
80
F0
80
80
80
80
80
80
80
80
80
ENDCHAR

STARTCHAR ldteert
ENCODING 117
SWIDTH 360 0
DWIDTH 7 0
BBX 4 20 0 -5
BITMAP
10
10
10
10
10
10
10
10
10
10
F0
10
10
10
10
10
10
10
10
10
ENDCHAR

STARTCHAR ldteebt
ENCODING 118
SWIDTH 360 0
DWIDTH 7 0
BBX 7 11 0 4
BITMAP
10
10
10
10
10
10
10
10
10
10
FE
ENDCHAR

STARTCHAR ldteetp
ENCODING 119
SWIDTH 360 0
DWIDTH 7 0
BBX 7 10 0 -5
BITMAP
FE
10
10
10
10
10
10
10
10
10
ENDCHAR

STARTCHAR ldvertical
ENCODING 120
SWIDTH 360 0
DWIDTH 7 0
BBX 1 20 3 -5
BITMAP
80
80
80
80
80
80
80
80
80
80
80
80
80
80
80
80
80
80
80
80
ENDCHAR

STARTCHAR lessequal
ENCODING 121
SWIDTH 360 0
DWIDTH 7 0
BBX 5 9 1 1
BITMAP
08
30
C0
C0
30
08
00
00
F8
ENDCHAR

STARTCHAR greaterequal
ENCODING 122
SWIDTH 360 0
DWIDTH 7 0
BBX 5 9 1 1
BITMAP
80
60
18
18
60
80
00
00
F8
ENDCHAR

STARTCHAR pi
ENCODING 123
SWIDTH 360 0
DWIDTH 7 0
BBX 6 9 1 0
BITMAP
FC
48
48
48
88
90
90
90
98
ENDCHAR

STARTCHAR notequal
ENCODING 124
SWIDTH 360 0
DWIDTH 7 0
BBX 5 8 1 2
BITMAP
10
10
F8
20
20
F8
40
40
ENDCHAR

STARTCHAR sterling
ENCODING 125
SWIDTH 360 0
DWIDTH 7 0
BBX 6 11 1 0
BITMAP
30
48
48
40
20
F8
20
20
20
64
98
ENDCHAR

STARTCHAR periodcentered
ENCODING 126
SWIDTH 360 0
DWIDTH 7 0
BBX 3 3 2 4
BITMAP
40
E0
40
ENDCHAR

STARTCHAR Error
ENCODING 159
SWIDTH 360 0
DWIDTH 7 0
BBX 6 17 0 -3
BITMAP
78
CC
84
84
80
80
40
20
10
10
10
00
00
00
10
7C
10
ENDCHAR

STARTCHAR ldradicalbt
ENCODING 161
SWIDTH 360 0
DWIDTH 7 0
BBX 4 12 0 3
BITMAP
10
10
10
10
10
10
10
10
D0
30
10
10
ENDCHAR

STARTCHAR ldradicaltp
ENCODING 162
SWIDTH 360 0
DWIDTH 7 0
BBX 4 10 3 -5
BITMAP
F0
80
80
80
80
80
80
80
80
80
ENDCHAR

STARTCHAR ldhorizontal
ENCODING 163
SWIDTH 360 0
DWIDTH 7 0
BBX 7 1 0 4
BITMAP
FE
ENDCHAR

STARTCHAR ldintegraltp
ENCODING 164
SWIDTH 360 0
DWIDTH 7 0
BBX 4 18 3 -5
BITMAP
70
80
80
80
80
80
80
80
80
80
80
80
80
80
80
80
80
80
ENDCHAR

STARTCHAR ldintegralbt
ENCODING 165
SWIDTH 360 0
DWIDTH 7 0
BBX 4 18 0 -3
BITMAP
10
10
10
10
10
10
10
10
10
10
10
10
10
10
10
10
10
E0
ENDCHAR

STARTCHAR ldvertical
ENCODING 166
SWIDTH 360 0
DWIDTH 7 0
BBX 1 20 3 -5
BITMAP
80
80
80
80
80
80
80
80
80
80
80
80
80
80
80
80
80
80
80
80
ENDCHAR

STARTCHAR ldbracketlfttp
ENCODING 167
SWIDTH 360 0
DWIDTH 7 0
BBX 4 18 3 -5
BITMAP
F0
80
80
80
80
80
80
80
80
80
80
80
80
80
80
80
80
80
ENDCHAR

STARTCHAR ldbracketlftbt
ENCODING 168
SWIDTH 360 0
DWIDTH 7 0
BBX 4 18 3 -3
BITMAP
80
80
80
80
80
80
80
80
80
80
80
80
80
80
80
80
80
F0
ENDCHAR

STARTCHAR ldbracketrttp
ENCODING 169
SWIDTH 360 0
DWIDTH 7 0
BBX 4 18 0 -5
BITMAP
F0
10
10
10
10
10
10
10
10
10
10
10
10
10
10
10
10
10
ENDCHAR

STARTCHAR ldbracketrtbt
ENCODING 170
SWIDTH 360 0
DWIDTH 7 0
BBX 4 18 0 -3
BITMAP
10
10
10
10
10
10
10
10
10
10
10
10
10
10
10
10
10
F0
ENDCHAR

STARTCHAR ldbracelfttp
ENCODING 171
SWIDTH 360 0
DWIDTH 7 0
BBX 4 18 3 -5
BITMAP
30
40
80
80
80
80
80
80
80
80
80
80
80
80
80
80
80
80
ENDCHAR

STARTCHAR ldbracelftbt
ENCODING 172
SWIDTH 360 0
DWIDTH 7 0
BBX 4 18 3 -3
BITMAP
80
80
80
80
80
80
80
80
80
80
80
80
80
80
80
80
40
30
ENDCHAR

STARTCHAR ldbracerttp
ENCODING 173
SWIDTH 360 0
DWIDTH 7 0
BBX 4 18 0 -5
BITMAP
C0
20
10
10
10
10
10
10
10
10
10
10
10
10
10
10
10
10
ENDCHAR

STARTCHAR ldbracertbt
ENCODING 174
SWIDTH 360 0
DWIDTH 7 0
BBX 4 18 0 -3
BITMAP
10
10
10
10
10
10
10
10
10
10
10
10
10
10
10
10
20
C0
ENDCHAR

STARTCHAR ldbracelftmid
ENCODING 175
SWIDTH 360 0
DWIDTH 7 0
BBX 3 20 1 -5
BITMAP
20
20
20
20
20
20
20
20
20
40
80
40
20
20
20
20
20
20
20
20
ENDCHAR

STARTCHAR ldbracertmid
ENCODING 176
SWIDTH 360 0
DWIDTH 7 0
BBX 3 20 3 -5
BITMAP
80
80
80
80
80
80
80
80
80
40
20
40
80
80
80
80
80
80
80
80
ENDCHAR

STARTCHAR ldsigmalfttp
ENCODING 177
SWIDTH 360 0
DWIDTH 7 0
BBX 5 10 2 -5
BITMAP
F8
80
40
40
20
20
10
10
08
08
ENDCHAR

STARTCHAR ldsigmalftbt
ENCODING 178
SWIDTH 360 0
DWIDTH 7 0
BBX 5 11 2 4
BITMAP
08
08
08
10
10
20
20
40
40
80
F8
ENDCHAR

STARTCHAR ldbackslash
ENCODING 179
SWIDTH 360 0
DWIDTH 7 0
BBX 7 20 0 -5
BITMAP
80
80
80
40
40
40
20
20
20
10
10
10
08
08
08
04
04
04
02
02
ENDCHAR

STARTCHAR ldslash
ENCODING 180
SWIDTH 360 0
DWIDTH 7 0
BBX 7 20 0 -5
BITMAP
02
02
02
04
04
04
08
08
08
10
10
10
20
20
20
40
40
40
80
80
ENDCHAR

STARTCHAR ldsigmarttp
ENCODING 181
SWIDTH 360 0
DWIDTH 7 0
BBX 7 3 0 2
BITMAP
FE
02
02
ENDCHAR

STARTCHAR ldsigmartbt
ENCODING 182
SWIDTH 360 0
DWIDTH 7 0
BBX 7 3 0 4
BITMAP
02
02
FE
ENDCHAR

STARTCHAR ldsigmamid
ENCODING 183
SWIDTH 360 0
DWIDTH 7 0
BBX 4 20 0 -5
BITMAP
80
80
80
40
40
40
20
20
20
10
10
10
20
20
20
40
40
40
80
80
ENDCHAR

STARTCHAR lessequal
ENCODING 188
SWIDTH 360 0
DWIDTH 7 0
BBX 5 9 1 1
BITMAP
08
30
C0
C0
30
08
00
00
F8
ENDCHAR

STARTCHAR notequal
ENCODING 189
SWIDTH 360 0
DWIDTH 7 0
BBX 5 8 1 2
BITMAP
10
10
F8
20
20
F8
40
40
ENDCHAR

STARTCHAR greaterequal
ENCODING 190
SWIDTH 360 0
DWIDTH 7 0
BBX 5 9 1 1
BITMAP
80
60
18
18
60
80
00
00
F8
ENDCHAR

STARTCHAR integral
ENCODING 191
SWIDTH 360 0
DWIDTH 7 0
BBX 5 18 1 -4
BITMAP
18
20
20
20
20
20
20
20
20
20
20
20
20
20
20
20
20
C0
ENDCHAR

STARTCHAR therefore
ENCODING 192
SWIDTH 360 0
DWIDTH 7 0
BBX 7 9 0 0
BITMAP
10
38
10
00
00
00
44
EE
44
ENDCHAR

STARTCHAR proportional
ENCODING 193
SWIDTH 360 0
DWIDTH 7 0
BBX 6 7 1 2
BITMAP
64
98
90
90
90
98
64
ENDCHAR

STARTCHAR infinity
ENCODING 194
SWIDTH 360 0
DWIDTH 7 0
BBX 7 7 0 2
BITMAP
6C
92
92
92
92
92
6C
ENDCHAR

STARTCHAR divide
ENCODING 195
SWIDTH 360 0
DWIDTH 7 0
BBX 5 7 1 2
BITMAP
20
20
00
F8
00
20
20
ENDCHAR

STARTCHAR Delta
ENCODING 196
SWIDTH 360 0
DWIDTH 7 0
BBX 7 11 0 0
BITMAP
10
10
28
28
28
28
44
44
44
44
FE
ENDCHAR

STARTCHAR gradient
ENCODING 197
SWIDTH 360 0
DWIDTH 7 0
BBX 7 11 0 0
BITMAP
FE
44
44
44
44
28
28
28
28
10
10
ENDCHAR

STARTCHAR Phi
ENCODING 198
SWIDTH 360 0
DWIDTH 7 0
BBX 5 11 1 0
BITMAP
70
20
70
A8
A8
A8
A8
A8
70
20
70
ENDCHAR

STARTCHAR Gamma
ENCODING 199
SWIDTH 360 0
DWIDTH 7 0
BBX 5 11 1 0
BITMAP
F8
48
48
40
40
40
40
40
40
40
F0
ENDCHAR

STARTCHAR similar
ENCODING 200
SWIDTH 360 0
DWIDTH 7 0
BBX 5 2 1 5
BITMAP
E8
98
ENDCHAR

STARTCHAR approxequal
ENCODING 201
SWIDTH 360 0
DWIDTH 7 0
BBX 5 4 1 3
BITMAP
E8
98
00
F8
ENDCHAR

STARTCHAR Theta
ENCODING 202
SWIDTH 360 0
DWIDTH 7 0
BBX 5 11 1 0
BITMAP
70
88
88
88
A8
A8
A8
88
88
88
70
ENDCHAR

STARTCHAR multiply
ENCODING 203
SWIDTH 360 0
DWIDTH 7 0
BBX 5 6 1 2
BITMAP
88
50
20
20
50
88
ENDCHAR

STARTCHAR Lambda
ENCODING 204
SWIDTH 360 0
DWIDTH 7 0
BBX 7 11 0 0
BITMAP
10
10
28
28
28
28
44
44
44
44
C6
ENDCHAR

STARTCHAR arrowdblboth
ENCODING 205
SWIDTH 360 0
DWIDTH 7 0
BBX 7 5 0 3
BITMAP
28
7C
C6
7C
28
ENDCHAR

STARTCHAR arrowdblright
ENCODING 206
SWIDTH 360 0
DWIDTH 7 0
BBX 7 7 0 2
BITMAP
10
08
FC
06
FC
08
10
ENDCHAR

STARTCHAR equivalence
ENCODING 207
SWIDTH 360 0
DWIDTH 7 0
BBX 5 7 1 2
BITMAP
F8
00
00
F8
00
00
F8
ENDCHAR

STARTCHAR Pi
ENCODING 208
SWIDTH 360 0
DWIDTH 7 0
BBX 7 11 0 0
BITMAP
FE
44
44
44
44
44
44
44
44
44
EE
ENDCHAR

STARTCHAR Psi
ENCODING 209
SWIDTH 360 0
DWIDTH 7 0
BBX 5 11 1 0
BITMAP
70
20
A8
A8
A8
A8
A8
70
20
20
70
ENDCHAR

STARTCHAR Sigma
ENCODING 211
SWIDTH 360 0
DWIDTH 7 0
BBX 6 11 0 0
BITMAP
FC
44
44
20
20
10
20
20
44
44
FC
ENDCHAR

STARTCHAR radical
ENCODING 214
SWIDTH 360 0
DWIDTH 7 0
BBX 7 16 0 -2
BITMAP
02
02
04
04
04
04
88
88
48
48
50
50
50
20
20
20
ENDCHAR

STARTCHAR Omega
ENCODING 215
SWIDTH 360 0
DWIDTH 7 0
BBX 5 11 1 0
BITMAP
70
88
88
88
88
88
88
50
50
50
D8
ENDCHAR

STARTCHAR Xi
ENCODING 216
SWIDTH 360 0
DWIDTH 7 0
BBX 5 11 1 0
BITMAP
F8
88
88
00
50
70
50
00
88
88
F8
ENDCHAR

STARTCHAR Upsilon1
ENCODING 217
SWIDTH 360 0
DWIDTH 7 0
BBX 7 11 0 0
BITMAP
82
44
44
28
28
10
10
10
10
10
38
ENDCHAR

STARTCHAR propersubset
ENCODING 218
SWIDTH 360 0
DWIDTH 7 0
BBX 5 8 1 1
BITMAP
38
40
80
80
80
80
40
38
ENDCHAR

STARTCHAR propersuperset
ENCODING 219
SWIDTH 360 0
DWIDTH 7 0
BBX 5 8 1 1
BITMAP
E0
10
08
08
08
08
10
E0
ENDCHAR

STARTCHAR intersection
ENCODING 220
SWIDTH 360 0
DWIDTH 7 0
BBX 5 8 1 1
BITMAP
70
88
88
88
88
88
88
88
ENDCHAR

STARTCHAR union
ENCODING 221
SWIDTH 360 0
DWIDTH 7 0
BBX 5 8 1 1
BITMAP
88
88
88
88
88
88
88
70
ENDCHAR

STARTCHAR logicaland
ENCODING 222
SWIDTH 360 0
DWIDTH 7 0
BBX 5 8 1 1
BITMAP
20
20
50
50
50
88
88
88
ENDCHAR

STARTCHAR logicalor
ENCODING 223
SWIDTH 360 0
DWIDTH 7 0
BBX 5 8 1 1
BITMAP
88
88
88
50
50
50
20
20
ENDCHAR

STARTCHAR logicalnot
ENCODING 224
SWIDTH 360 0
DWIDTH 7 0
BBX 5 3 1 3
BITMAP
F8
08
08
ENDCHAR

STARTCHAR alpha
ENCODING 225
SWIDTH 360 0
DWIDTH 7 0
BBX 6 9 1 0
BITMAP
34
4C
88
88
88
88
98
94
64
ENDCHAR

STARTCHAR beta
ENCODING 226
SWIDTH 360 0
DWIDTH 7 0
BBX 6 16 0 -4
BITMAP
18
24
24
24
24
58
44
44
44
44
44
78
80
80
80
80
ENDCHAR

STARTCHAR chi
ENCODING 227
SWIDTH 360 0
DWIDTH 7 0
BBX 6 12 1 -3
BITMAP
64
24
28
28
10
10
30
30
48
48
48
CC
ENDCHAR

STARTCHAR delta
ENCODING 228
SWIDTH 360 0
DWIDTH 7 0
BBX 5 12 1 0
BITMAP
18
20
20
10
30
48
88
88
88
90
90
60
ENDCHAR

STARTCHAR epsilon
ENCODING 229
SWIDTH 360 0
DWIDTH 7 0
BBX 5 9 1 0
BITMAP
38
40
40
40
F8
80
80
80
78
ENDCHAR

STARTCHAR phi
ENCODING 230
SWIDTH 360 0
DWIDTH 7 0
BBX 6 16 1 -4
BITMAP
10
10
10
38
54
54
94
A4
A4
A8
A8
70
20
20
20
20
ENDCHAR

STARTCHAR gamma
ENCODING 231
SWIDTH 360 0
DWIDTH 7 0
BBX 5 12 1 -3
BITMAP
88
88
90
50
50
50
20
20
20
40
40
40
ENDCHAR

STARTCHAR eta
ENCODING 232
SWIDTH 360 0
DWIDTH 7 0
BBX 6 12 1 -3
BITMAP
F8
44
44
44
44
88
88
88
88
08
08
08
ENDCHAR

STARTCHAR iota
ENCODING 233
SWIDTH 360 0
DWIDTH 7 0
BBX 4 9 2 0
BITMAP
C0
40
40
40
80
80
80
90
E0
ENDCHAR

STARTCHAR theta
ENCODING 234
SWIDTH 360 0
DWIDTH 7 0
BBX 5 12 1 0
BITMAP
30
48
48
48
88
F8
88
88
90
90
90
60
ENDCHAR

STARTCHAR kappa
ENCODING 235
SWIDTH 360 0
DWIDTH 7 0
BBX 5 9 1 0
BITMAP
48
48
50
50
60
A0
90
90
88
ENDCHAR

STARTCHAR lambda
ENCODING 236
SWIDTH 360 0
DWIDTH 7 0
BBX 5 12 1 0
BITMAP
60
20
20
20
20
20
50
50
50
90
90
98
ENDCHAR

STARTCHAR nu
ENCODING 238
SWIDTH 360 0
DWIDTH 7 0
BBX 5 9 1 0
BITMAP
C8
48
48
48
48
50
50
60
40
ENDCHAR

STARTCHAR partialdiff
ENCODING 239
SWIDTH 360 0
DWIDTH 7 0
BBX 5 12 1 0
BITMAP
E0
10
10
08
38
48
88
88
88
90
90
60
ENDCHAR

STARTCHAR pi
ENCODING 240
SWIDTH 360 0
DWIDTH 7 0
BBX 6 9 1 0
BITMAP
FC
48
48
48
88
90
90
90
98
ENDCHAR

STARTCHAR psi
ENCODING 241
SWIDTH 360 0
DWIDTH 7 0
BBX 7 14 0 -3
BITMAP
08
08
4A
4A
52
52
92
92
94
94
78
20
20
20
ENDCHAR

STARTCHAR rho
ENCODING 242
SWIDTH 360 0
DWIDTH 7 0
BBX 5 12 1 -3
BITMAP
30
48
48
88
88
88
88
90
E0
80
80
80
ENDCHAR

STARTCHAR sigma
ENCODING 243
SWIDTH 360 0
DWIDTH 7 0
BBX 6 9 1 0
BITMAP
3C
48
48
88
88
88
90
90
60
ENDCHAR

STARTCHAR tau
ENCODING 244
SWIDTH 360 0
DWIDTH 7 0
BBX 5 9 1 0
BITMAP
F8
20
20
20
40
40
40
48
70
ENDCHAR

STARTCHAR florin
ENCODING 246
SWIDTH 360 0
DWIDTH 7 0
BBX 6 14 0 -3
BITMAP
0C
10
10
10
7C
10
10
10
20
20
20
20
20
C0
ENDCHAR

STARTCHAR omega
ENCODING 247
SWIDTH 360 0
DWIDTH 7 0
BBX 5 9 1 0
BITMAP
48
88
A8
A8
A8
A8
A8
A8
50
ENDCHAR

STARTCHAR xi
ENCODING 248
SWIDTH 360 0
DWIDTH 7 0
BBX 5 15 1 -4
BITMAP
78
20
40
40
40
30
40
80
80
80
70
08
08
08
10
ENDCHAR

STARTCHAR upsilon
ENCODING 249
SWIDTH 360 0
DWIDTH 7 0
BBX 5 9 1 0
BITMAP
C8
88
88
88
88
88
90
90
60
ENDCHAR

STARTCHAR zeta
ENCODING 250
SWIDTH 360 0
DWIDTH 7 0
BBX 5 15 1 -4
BITMAP
78
08
10
20
40
40
80
80
80
80
70
08
08
08
10
ENDCHAR

STARTCHAR arrowleft
ENCODING 251
SWIDTH 360 0
DWIDTH 7 0
BBX 6 5 1 2
BITMAP
20
40
FC
40
20
ENDCHAR

STARTCHAR arrowup
ENCODING 252
SWIDTH 360 0
DWIDTH 7 0
BBX 5 11 1 0
BITMAP
20
70
A8
A8
20
20
20
20
20
20
20
ENDCHAR

STARTCHAR arrowright
ENCODING 253
SWIDTH 360 0
DWIDTH 7 0
BBX 6 5 0 2
BITMAP
10
08
FC
08
10
ENDCHAR

STARTCHAR arrowdown
ENCODING 254
SWIDTH 360 0
DWIDTH 7 0
BBX 5 11 1 0
BITMAP
20
20
20
20
20
20
20
A8
A8
70
20
ENDCHAR
ENDFONT
